<svg height="96" width="96" xmlns="http://www.w3.org/2000/svg" xmlns:xlink="http://www.w3.org/1999/xlink"><linearGradient id="a"><stop offset="0" stop-color="#fefefe"/><stop offset="1" stop-color="#fefefe" stop-opacity="0"/></linearGradient><linearGradient id="b" gradientUnits="userSpaceOnUse" x1="36.357143" x2="36.357143" xlink:href="#a" y1="6" y2="63.893143"/><filter id="c" color-interpolation-filters="sRGB" height="1.384" width="1.384" x="-.192" y="-.192"><feGaussianBlur stdDeviation="5.28"/></filter><linearGradient id="d" gradientUnits="userSpaceOnUse" x1="48" x2="48" xlink:href="#a" y1="20.220806" y2="138.66119"/><radialGradient id="e" cx="48" cy="90.171875" gradientTransform="matrix(1.1573129 0 0 .99590774 -7.551021 .197132)" gradientUnits="userSpaceOnUse" r="42" xlink:href="#a"/><clipPath id="f"><rect height="84" rx="6" width="84" x="6" y="6"/></clipPath><linearGradient id="g" gradientUnits="userSpaceOnUse" x1="48" x2="48" y1="90" y2="5.987717"><stop offset="0" stop-color="#52a100"/><stop offset="1" stop-color="#8fd600"/></linearGradient><linearGradient id="h" gradientTransform="matrix(1.0058652 0 0 .994169 100 0)" gradientUnits="userSpaceOnUse" x1="45.447727" x2="45.447727" y1="92.539597" y2="7.01654"><stop offset="0"/><stop offset="1" stop-opacity=".588235"/></linearGradient><linearGradient id="i" gradientTransform="matrix(1.0238095 0 0 1.0119048 -1.142857 -98.071429)" gradientUnits="userSpaceOnUse" x1="32.251034" x2="32.251034" xlink:href="#h" y1="6.131708" y2="90.238609"/><linearGradient id="j" gradientTransform="translate(0 -97)" gradientUnits="userSpaceOnUse" x1="32.251034" x2="32.251034" xlink:href="#h" y1="6.131708" y2="90.238609"/><linearGradient id="k" gradientUnits="userSpaceOnUse" x1="46.85527855428" x2="47.23293724273" y1="20.11269154962" y2="70.56991996615"><stop offset="0" stop-color="#a7ee00"/><stop offset="1" stop-color="#61ca00"/></linearGradient><g fill="url(#i)"><path d="m12-95.03125c-5.5110903 0-10.03125 4.52016-10.03125 10.03125v71c0 5.5110902 4.5201598 10.03125 10.03125 10.03125h72c5.51109 0 10.03125-4.5201597 10.03125-10.03125v-71c0-5.51109-4.52016-10.03125-10.03125-10.03125z" opacity=".08" transform="scale(1 -1)"/><path d="m12-94.03125c-4.971633 0-9.03125 4.059617-9.03125 9.03125v71c0 4.9716329 4.0596171 9.03125 9.03125 9.03125h72c4.971633 0 9.03125-4.059617 9.03125-9.03125v-71c0-4.971633-4.059617-9.03125-9.03125-9.03125z" opacity=".1" transform="scale(1 -1)"/><path d="m12-93c-4.4091333 0-8 3.590867-8 8v71c0 4.4091333 3.5908667 8 8 8h72c4.409133 0 8-3.5908667 8-8v-71c0-4.409133-3.590867-8-8-8z" opacity=".2" transform="scale(1 -1)"/><rect height="85" opacity=".3" rx="7" transform="scale(1 -1)" width="86" x="5" y="-92"/></g><rect fill="url(#j)" height="84" opacity=".45" rx="6" transform="scale(1 -1)" width="84" x="6" y="-91"/><rect fill="url(#g)" height="84" rx="6" width="84" x="6" y="6"/><path d="m20.563793 70.9567c-6.118071-.435453-10.9996714-3.12966-14.162141-7.816238l-.401652-.595214v-19.047149-19.04715l.5373335-.907309c.7643373-1.290594 1.492487-2.236095 2.4854955-3.227424 2.722681-2.718069 5.662759-3.517867 9.182384-2.497919 1.056832.306258 2.254885.859747 3.92709 1.814281.824835.470838 1.588246.8786 1.696458.906139.273108.0695.444793-.06155.532302-.406299.117008-.460996-.125268-.980719-.732051-1.570397-.27892-.271047-.527885-.553666-.553267-.628043-.20365-.596836 1.235058-.629441 2.610918-.05917 1.751515.725977 3.771877 2.251868 6.810338 5.143568 1.997513 1.901025 2.779763 2.593255 3.063112 2.710622.224019.09279.259788.08424.40682-.09716.136042-.167858.155349-.288308.123707-.77164-.0432-.659498-.250955-1.126128-.833192-1.871228-.476036-.609188-.49237-.882553-.06621-1.107049.148086-.078.283914-.07322.660368.02322.7144.183022 1.228232.433603 3.051157 1.487978 4.052395 2.343895 6.532957 3.226193 9.070359 3.226193 2.537422 0 5.025667-.884914 9.073958-3.227043 1.82705-1.057035 2.333607-1.304221 3.047568-1.487128.376454-.09644.512272-.101218.660367-.02322.426207.224496.409873.497861-.06621 1.107049-.582239.7451-.790013 1.21173-.833192 1.871228-.03159.483332-.01238.603782.123707.77164.147022.181413.1828.189958.40682.09716.283347-.117367 1.065598-.809597 3.063102-2.710622 3.038471-2.8917 5.058832-4.417591 6.810347-5.143568 1.375859-.570269 2.814567-.537664 2.610918.05917-.02535.07437-.274347.356996-.553267.628043-.606783.589678-.849058 1.109401-.73205 1.570397.08747.344744.259203.475796.532301.406299.108212-.02754.871623-.435301 1.696458-.906139 2.325767-1.327602 3.670715-1.861086 5.413034-2.147129.981638-.161159 2.330008-.109241 3.213391.123726 2.591923.68355 5.077633 2.772198 6.878178 5.779463l.464061.775072-.002 19.330258-.002 19.330256-.532633.744979c-2.422979 3.388955-5.792238 5.678812-9.931831 6.749993-2.995222.775058-6.342492.903807-9.290937.357367-4.007698-.742775-8.257463-2.671021-12.053181-5.468935-.607271-.447628-.674878-.523562-.628676-.706113.134824-.5328.135185-1.245488.000937-1.856776-.160958-.732904-.603897-1.968023-.962594-2.684181-.669719-1.337119-2.057447-2.971234-3.152182-3.711848-.778467-.526651-1.929254-1.050373-2.84077-1.292831-.744366-.197997-.958459-.218086-2.372759-.222636-1.733181-.0056-2.185326.06535-3.453959.541875-1.108388.416328-2.044429 1.034984-3.003951 1.985412-1.475061 1.461069-2.487328 3.221155-2.996188 5.209651-.170133.664818-.18714 1.511228-.04242 2.113153.04359.181237-.02331.257065-.586286.665373-4.624435 3.353682-9.565937 5.344905-14.172371 5.710897-1.218267.09679-1.801734.09627-3.195039-.0029z" fill="url(#k)" stroke-width=".081819"/><path d="m12 6c-3.324 0-6 2.676-6 6v2 68 2c0 .334721.04135.6507.09375.96875.0487.295596.09704.596915.1875.875.00988.03038.020892.0636.03125.09375.098865.287771.2348802.547452.375.8125.1445918.273507.3156161.535615.5.78125s.3737765.473472.59375.6875c.439947.428056.94291.814526 1.5 1.09375.278545.139612.5734731.246947.875.34375-.2562018-.100222-.4867109-.236272-.71875-.375-.00741-.0044-.023866.0045-.03125 0-.031933-.0193-.062293-.04251-.09375-.0625-.120395-.0767-.2310226-.163513-.34375-.25-.1061728-.0808-.2132809-.161112-.3125-.25-.1779299-.161433-.3474596-.345388-.5-.53125-.1075789-.130255-.2183939-.265285-.3125-.40625-.025089-.03838-.038446-.08587-.0625-.125-.064763-.103032-.1302275-.204517-.1875-.3125-.1010083-.194706-.2056748-.415701-.28125-.625-.00796-.02181-.023589-.04055-.03125-.0625-.0318251-.09195-.0358045-.186831-.0625-.28125-.0303323-.106618-.0703894-.203031-.09375-.3125-.0728786-.341512-.125-.698205-.125-1.0625v-2-68-2c0-2.781848 2.2181517-5 5-5h2 68 2c2.781848 0 5 2.218152 5 5v2 68 2c0 .364295-.05212.720988-.125 1.0625-.04415.206893-.08838.397658-.15625.59375-.0077.02195-.0233.04069-.03125.0625-.06274.173739-.138383.367449-.21875.53125-.04158.0828-.07904.169954-.125.25-.0546.09721-.126774.18835-.1875.28125-.09411.140965-.204921.275995-.3125.40625-.143174.17445-.303141.346998-.46875.5-.01117.0102-.01998.02115-.03125.03125-.138386.125556-.285091.234436-.4375.34375-.102571.07315-.204318.153364-.3125.21875-.0074.0045-.02384-.0044-.03125 0-.232039.138728-.462548.274778-.71875.375.301527-.0968.596455-.204138.875-.34375.55709-.279224 1.060053-.665694 1.5-1.09375.219973-.214028.409366-.441865.59375-.6875s.355408-.507743.5-.78125c.14012-.265048.276135-.524729.375-.8125.01041-.03078.02133-.06274.03125-.09375.09046-.278085.1388-.579404.1875-.875.0524-.31805.09375-.634029.09375-.96875v-2-68-2c0-3.324-2.676-6-6-6z" fill="url(#b)" opacity=".4"/><path d="m12 90c-3.324 0-6-2.676-6-6v-2-68-2c0-.334721.04135-.6507.09375-.96875.0487-.295596.09704-.596915.1875-.875.00988-.03038.020892-.0636.03125-.09375.098865-.287771.2348802-.547452.375-.8125.1445918-.273507.3156161-.535615.5-.78125s.3737765-.473472.59375-.6875c.439947-.428056.94291-.814526 1.5-1.09375.278545-.139612.5734731-.246947.875-.34375-.2562018.100222-.4867109.236272-.71875.375-.00741.0044-.023866-.0045-.03125 0-.031933.0193-.062293.04251-.09375.0625-.120395.0767-.2310226.163513-.34375.25-.1061728.0808-.2132809.161112-.3125.25-.1779299.161433-.3474596.345388-.5.53125-.1075789.130255-.2183939.265285-.3125.40625-.025089.03838-.038446.08587-.0625.125-.064763.103032-.1302275.204517-.1875.3125-.1010083.194706-.2056748.415701-.28125.625-.00796.02181-.023589.04055-.03125.0625-.0318251.09195-.0358045.186831-.0625.28125-.0303323.106618-.0703894.203031-.09375.3125-.0728786.341512-.125.698205-.125 1.0625v2 68 2c0 2.781848 2.2181517 5 5 5h2 68 2c2.781848 0 5-2.218152 5-5v-2-68-2c0-.364295-.05212-.720988-.125-1.0625-.04415-.206893-.08838-.397658-.15625-.59375-.0077-.02195-.0233-.04069-.03125-.0625-.06274-.173739-.138383-.367449-.21875-.53125-.04158-.0828-.07904-.169954-.125-.25-.0546-.09721-.126774-.18835-.1875-.28125-.09411-.140965-.204921-.275995-.3125-.40625-.143174-.17445-.303141-.346998-.46875-.5-.01117-.0102-.01998-.02115-.03125-.03125-.138386-.125556-.285091-.234436-.4375-.34375-.102571-.07315-.204318-.153364-.3125-.21875-.0074-.0045-.02384.0044-.03125 0-.232039-.138728-.462548-.274778-.71875-.375.301527.0968.596455.204138.875.34375.55709.279224 1.060053.665694 1.5 1.09375.219973.214028.409366.441865.59375.6875s.355408.507743.5.78125c.14012.265048.276135.524729.375.8125.01041.03078.02133.06274.03125.09375.09046.278085.1388.579404.1875.875.0524.31805.09375.634029.09375.96875v2 68 2c0 3.324-2.676 6-6 6z" fill="url(#e)" opacity=".2"/><path d="m36.487416 45.919261a9.9022455 12.080739 0 0 1 -9.902245 12.080739 9.9022455 12.080739 0 0 1 -9.902246-12.080739 9.9022455 12.080739 0 0 1 9.902246-12.080739 9.9022455 12.080739 0 0 1 9.902245 12.080739z" fill="#fff"/><path d="m26.546875 38.976436a6.1095252 7.4536204 0 0 0 -2.599609.716796 2.9061353 3.0676168 0 0 1 2.09375 2.945313 2.9061353 3.0676168 0 0 1 -2.90625 3.066406 2.9061353 3.0676168 0 0 1 -2.441407-1.404297 6.1095252 7.4536204 0 0 0 -.255859 2.13086 6.1095252 7.4536204 0 0 0 6.109375 7.453125 6.1095252 7.4536204 0 0 0 6.109375-7.453125 6.1095252 7.4536204 0 0 0 -6.109375-7.455078z" fill="#373436"/><path d="m77.804491 45.91926a9.9022455 12.080739 0 0 1 -9.902245 12.08074 9.9022455 12.080739 0 0 1 -9.902246-12.08074 9.9022455 12.080739 0 0 1 9.902246-12.08074 9.9022455 12.080739 0 0 1 9.902245 12.08074z" fill="#fff"/><path d="m67.86395 38.97644a6.1095252 7.4536204 0 0 0 -2.599609.71679 2.9061353 3.0676168 0 0 1 2.09375 2.94531 2.9061353 3.0676168 0 0 1 -2.90625 3.06641 2.9061353 3.0676168 0 0 1 -2.441407-1.4043 6.1095252 7.4536204 0 0 0 -.255859 2.13086 6.1095252 7.4536204 0 0 0 6.109375 7.45313 6.1095252 7.4536204 0 0 0 6.109375-7.45313 6.1095252 7.4536204 0 0 0 -6.109375-7.45507z" fill="#373436"/><path d="m54.917383 67.407445a7.2416064 10.139192 0 0 1 -7.241606 10.139191 7.2416064 10.139192 0 0 1 -7.241607-10.139191 7.2416064 10.139192 0 0 1 7.241607-10.139192 7.2416064 10.139192 0 0 1 7.241606 10.139192z" fill="#f49000"/><path d="m57.692054 64.908071s-6.823217 8.642555-9.902245 8.642556c-2.875639.000001-9.902246-8.642556-9.902246-8.642556 0-5.877721 4.433387-10.642555 9.902246-10.642555s10.037626 4.907366 9.902245 10.642555z" fill="#ffc200"/><path d="m47.796611 56.674026a5.5722642 3.0420061 0 0 1 5.572264 3.042006 5.5722642 3.0420061 0 0 1 -5.572264 3.042007 5.5722642 3.0420061 0 0 1 -5.572264-3.042007 5.5722642 3.0420061 0 0 1 5.572264-3.042006z" fill="#fff" opacity=".7"/><rect height="66" rx="12" style="opacity:.1;stroke:#fefefe;stroke-width:.5;stroke-linecap:round;clip-path:url(#f);fill:url(#d);filter:url(#c)" transform="translate(-.359546 -.071909)" width="66" x="15" y="15"/></svg>